<?xml version="1.0" encoding="utf-8"?>
<!-- Generator: Adobe Illustrator 18.0.0, SVG Export Plug-In . SVG Version: 6.00 Build 0)  -->
<!DOCTYPE svg PUBLIC "-//W3C//DTD SVG 1.1//EN" "http://www.w3.org/Graphics/SVG/1.1/DTD/svg11.dtd">
<svg version="1.1" id="Livello_1" xmlns="http://www.w3.org/2000/svg" xmlns:xlink="http://www.w3.org/1999/xlink" x="0px" y="0px"
	 width="205.2px" height="62.9px" viewBox="0 0 205.2 62.9" enable-background="new 0 0 205.2 62.9" xml:space="preserve">
<g>
	<g>
		<g>
			<defs>
				<path id="SVGID_1_" d="M2.8,0.1L2.8,0.1l3.1,10.8l31.1,46l0.1,0.1c1.1,1.5,2.9,2.4,4.9,2.4c0.7,0,1.5-0.1,2.1-0.4
					c0-0.1,0-0.1,0.1-0.2c0.2-0.6,0.4-1.1,0.5-1.7c0-0.1,0.1-0.2,0.1-0.3l0,0c0-0.1,0.1-0.2,0.1-0.3c0-0.2,0.1-0.3,0.1-0.5
					c0-0.1,0.1-0.3,0.1-0.4c0-0.2,0.1-0.3,0.1-0.5c0-0.1,0.1-0.3,0.1-0.4c0.1-0.2,0.1-0.4,0.1-0.7c0-0.1,0-0.2,0.1-0.3
					c0-0.2,0.1-0.5,0.1-0.7c0-0.1,0-0.2,0.1-0.3c0-0.2,0.1-0.4,0.1-0.6c0-0.1,0-0.2,0-0.3c0.1-0.6,0.2-1.2,0.2-1.8
					c0-0.1,0-0.1,0-0.2c0-0.3,0.1-0.5,0.1-0.8v-0.1l0,0c0.1-1.3,0.2-2.7,0.2-4.1C46.3,20.5,26.9,0.7,2.8,0.1L2.8,0.1z"/>
			</defs>
			<clipPath id="SVGID_2_">
				<use xlink:href="#SVGID_1_"  overflow="visible"/>
			</clipPath>
			
				<linearGradient id="SVGID_3_" gradientUnits="userSpaceOnUse" x1="-600.7842" y1="449.0983" x2="-599.7842" y2="449.0983" gradientTransform="matrix(-90.6474 -81.2157 -81.2157 90.6474 -17897.7695 -89416.125)">
				<stop  offset="0" style="stop-color:#228F38"/>
				<stop  offset="0.1043" style="stop-color:#228F38"/>
				<stop  offset="1" style="stop-color:#63B332"/>
			</linearGradient>
			<polygon clip-path="url(#SVGID_2_)" fill="url(#SVGID_3_)" points="26.9,81 -26.7,33 22.1,-21.5 75.7,26.5 			"/>
		</g>
	</g>
</g>
<g>
	<g>
		<g>
			<defs>
				<path id="SVGID_4_" d="M37.7,45.4c0,1.6,0.1,3.2,0.3,4.7l0,0c0,0.2,0,0.3,0.1,0.5l0,0c0.1,0.5,0.1,0.9,0.2,1.4
					c0,0.1,0,0.1,0,0.2c0,0.1,0,0.3,0.1,0.4c0,0.1,0,0.2,0,0.3c0,0.2,0.1,0.3,0.1,0.5c0,0.1,0,0.2,0.1,0.3c0,0.1,0,0.2,0.1,0.3
					c0,0.1,0.1,0.3,0.1,0.4c0,0.1,0,0.1,0,0.2c0,0.2,0.1,0.4,0.1,0.6c0,0.1,0,0.1,0,0.2c0,0.1,0.1,0.3,0.1,0.4c0,0.1,0,0.1,0,0.2
					c0,0.2,0.1,0.4,0.2,0.6l0,0c0,0.1,0.1,0.3,0.1,0.4c0.1,0.6,0.3,1.1,0.5,1.6c0,0.1,0.1,0.3,0.1,0.4c0.6,0.2,1.3,0.3,2,0.3
					c2.1,0,4-1.1,5.1-2.7l31-45.8V1C55.3,3.3,37.7,22.3,37.7,45.4"/>
			</defs>
			<clipPath id="SVGID_5_">
				<use xlink:href="#SVGID_4_"  overflow="visible"/>
			</clipPath>
			
				<linearGradient id="SVGID_6_" gradientUnits="userSpaceOnUse" x1="-580.1762" y1="440.23" x2="-579.1772" y2="440.23" gradientTransform="matrix(40.1384 0 0 -40.1384 23325.0938 17700.3281)">
				<stop  offset="0" style="stop-color:#4FAE34"/>
				<stop  offset="0.1043" style="stop-color:#4FAE34"/>
				<stop  offset="1" style="stop-color:#7EB928"/>
			</linearGradient>
			<rect x="37.7" y="1" clip-path="url(#SVGID_5_)" fill="url(#SVGID_6_)" width="40.1" height="58.4"/>
		</g>
	</g>
</g>
<g>
	<g>
		<g>
			<defs>
				<path id="SVGID_7_" d="M0,0.1c6.4,16.9,22.7,29,41.9,29c0.5,0,1,0,1.6,0c-6.4-16.9-22.7-29-41.9-29C1,0.1,0.5,0.1,0,0.1"/>
			</defs>
			<clipPath id="SVGID_8_">
				<use xlink:href="#SVGID_7_"  overflow="visible"/>
			</clipPath>
			
				<linearGradient id="SVGID_9_" gradientUnits="userSpaceOnUse" x1="-608.1315" y1="444.6343" x2="-607.1315" y2="444.6343" gradientTransform="matrix(-28.5166 -41.3492 -41.3492 28.5166 1084.6671 -37782.332)">
				<stop  offset="0" style="stop-color:#228F38"/>
				<stop  offset="0.1043" style="stop-color:#228F38"/>
				<stop  offset="1" style="stop-color:#63B332"/>
			</linearGradient>
			<polygon clip-path="url(#SVGID_8_)" fill="url(#SVGID_9_)" points="14,49.4 -13.6,9.4 29.4,-20.2 57,19.7 			"/>
		</g>
	</g>
</g>
<g>
	<g>
		<g>
			<defs>
				<rect id="SVGID_10_" x="0" y="0" width="205.2" height="62.9"/>
			</defs>
			<clipPath id="SVGID_11_">
				<use xlink:href="#SVGID_10_"  overflow="visible"/>
			</clipPath>
			<path clip-path="url(#SVGID_11_)" fill="#A5C727" d="M40.8,29.1c0.3,0,0.7,0,1,0c18.9,0,35.5-11.9,41.8-29c-0.3,0-0.7,0-1,0
				C63.7,0.1,47.1,12,40.8,29.1"/>
		</g>
	</g>
	<g>
		<g>
			<defs>
				<rect id="SVGID_12_" x="0" y="0" width="205.2" height="62.9"/>
			</defs>
			<clipPath id="SVGID_13_">
				<use xlink:href="#SVGID_12_"  overflow="visible"/>
			</clipPath>
			<path clip-path="url(#SVGID_13_)" fill="#3FAE2A" d="M118,0.1c-1.7,0-2.2,0.5-2.7,2.1l-8.7,27.5L97.8,2.1c-0.5-1.5-1-2.1-2.6-2.1
				h-8.5l14.5,40.4c0,0.1,0.1,0.2,0.1,0.3l0.6,1.7h9.1l1.2-3.2l0,0L126.6,0C126.7,0.1,118,0.1,118,0.1z"/>
		</g>
	</g>
	<g>
		<g>
			<defs>
				<rect id="SVGID_14_" x="0" y="0" width="205.2" height="62.9"/>
			</defs>
			<clipPath id="SVGID_15_">
				<use xlink:href="#SVGID_14_"  overflow="visible"/>
			</clipPath>
			<path clip-path="url(#SVGID_15_)" fill="#3FAE2A" d="M138.2,0.1h-8.7v40.6v1.9h1.6h9.1V2.2C140.2,0.8,139.2,0.1,138.2,0.1"/>
		</g>
	</g>
	<g>
		<g>
			<defs>
				<rect id="SVGID_16_" x="0" y="0" width="205.2" height="62.9"/>
			</defs>
			<clipPath id="SVGID_17_">
				<use xlink:href="#SVGID_16_"  overflow="visible"/>
			</clipPath>
			<path clip-path="url(#SVGID_17_)" fill="#3FAE2A" d="M143,20.4v22.2h10.7V20.7c0-3.2,0.8-5.5,2.3-7c1.6-1.5,3.9-2.2,7.1-2.2h3.8
				V0.1C166.7,0.1,143-2.3,143,20.4"/>
		</g>
	</g>
	<g>
		<g>
			<defs>
				<rect id="SVGID_18_" x="0" y="0" width="205.2" height="62.9"/>
			</defs>
			<clipPath id="SVGID_19_">
				<use xlink:href="#SVGID_18_"  overflow="visible"/>
			</clipPath>
			<path clip-path="url(#SVGID_19_)" fill="#3FAE2A" d="M196.6,0.1c-0.9,0-1.9,0.8-1.9,1.9v26.2c0,4.1-2.8,6.4-7.2,6.4
				s-7.2-2.3-7.2-6.4v-26c0-1.5-1.1-2.2-2-2.2h-8.5v29.4c0,10.1,9.7,13.9,17.7,13.9s17.7-3.8,17.7-13.9V0.1H196.6z"/>
		</g>
	</g>
	<g>
		<g>
			<defs>
				<rect id="SVGID_20_" x="0" y="0" width="205.2" height="62.9"/>
			</defs>
			<clipPath id="SVGID_21_">
				<use xlink:href="#SVGID_20_"  overflow="visible"/>
			</clipPath>
			<path clip-path="url(#SVGID_21_)" fill="#4FAE34" d="M111.9,59c0,0.3-0.1,0.3-0.3,0.3h-0.7c-0.2,0-0.3-0.1-0.5-0.3l-5.8-8.1l0,0
				V59c0,0.2-0.1,0.3-0.3,0.3h-0.7c-0.2,0-0.3-0.1-0.3-0.3V48.7c0-0.2,0.1-0.3,0.3-0.3h0.6c0.2,0,0.3,0,0.4,0.2l5.9,8.3l0,0v-8.2
				c0-0.3,0.1-0.3,0.3-0.3h0.8c0.2,0,0.3,0.1,0.3,0.3C111.9,48.7,111.9,59,111.9,59z"/>
		</g>
	</g>
	<g>
		<g>
			<defs>
				<rect id="SVGID_22_" x="0" y="0" width="205.2" height="62.9"/>
			</defs>
			<clipPath id="SVGID_23_">
				<use xlink:href="#SVGID_22_"  overflow="visible"/>
			</clipPath>
			<path clip-path="url(#SVGID_23_)" fill="#4FAE34" d="M120.9,59.1c0,0.2-0.1,0.2-0.2,0.2H120c-0.7,0-1-0.5-1-1.2l0,0
				c-0.4,0.7-1.4,1.3-2.4,1.3c-2.2,0-3.2-1.9-3.2-3.9c0-2.7,1.6-4.2,3.4-4.2c0.8,0,1.7,0.3,2.1,1v-0.5c0-0.2,0.1-0.3,0.3-0.3h0.7
				c0.2,0,0.3,0.1,0.3,0.3v5.6c0,0.4,0,0.6,0.1,0.7c0.1,0.1,0.1,0.1,0.3,0.1h0.1c0.1,0,0.2,0,0.2,0.2
				C120.9,58.6,120.9,59.1,120.9,59.1z M118.9,53.7c-0.4-0.7-1.2-1.2-1.9-1.2c-1.2,0-2.2,1.1-2.2,3c0,1.8,0.8,2.8,2,2.8
				c1,0,1.8-0.8,2.1-1.6V53.7z"/>
		</g>
	</g>
	<g>
		<g>
			<defs>
				<rect id="SVGID_24_" x="0" y="0" width="205.2" height="62.9"/>
			</defs>
			<clipPath id="SVGID_25_">
				<use xlink:href="#SVGID_24_"  overflow="visible"/>
			</clipPath>
			<path clip-path="url(#SVGID_25_)" fill="#4FAE34" d="M125,58.4c0.4,0,0.8-0.1,1-0.2c0.1,0,0.2,0,0.3,0.1l0.1,0.5
				c0,0.2,0,0.2-0.2,0.3c-0.4,0.1-0.9,0.3-1.5,0.3c-0.7,0-1.4-0.2-1.7-0.6c-0.5-0.5-0.5-1.2-0.5-2.1v-4.2h-0.9c-0.2,0-0.2,0-0.2-0.2
				v-0.5c0-0.2,0.1-0.2,0.2-0.2h0.9v-1.8c0-0.2,0.1-0.3,0.3-0.3l0.8-0.1h0.1c0.2,0,0.2,0.1,0.2,0.3v2h1.9c0.1,0,0.2,0,0.2,0.2v0.5
				c0,0.2-0.1,0.2-0.2,0.2h-1.9v4.3c0,0.5,0,0.9,0.3,1.2C124.3,58.3,124.6,58.4,125,58.4"/>
		</g>
	</g>
	<g>
		<g>
			<defs>
				<rect id="SVGID_26_" x="0" y="0" width="205.2" height="62.9"/>
			</defs>
			<clipPath id="SVGID_27_">
				<use xlink:href="#SVGID_26_"  overflow="visible"/>
			</clipPath>
			<path clip-path="url(#SVGID_27_)" fill="#4FAE34" d="M133.8,59c0,0.2-0.1,0.4-0.3,0.4h-0.7c-0.2,0-0.3-0.1-0.3-0.3v-0.5
				c-0.7,0.6-1.6,1-2.5,1c-1.8,0-2.5-1.2-2.5-2.9V52c0-0.2,0.1-0.3,0.3-0.3h0.7c0.2,0,0.3,0.1,0.3,0.3v4.5c0,1.1,0.3,1.9,1.5,1.9
				c0.7,0,1.6-0.5,2.1-0.9V52c0-0.2,0.1-0.3,0.3-0.3h0.8c0.2,0,0.3,0.1,0.3,0.3L133.8,59L133.8,59z"/>
		</g>
	</g>
	<g>
		<g>
			<defs>
				<rect id="SVGID_28_" x="0" y="0" width="205.2" height="62.9"/>
			</defs>
			<clipPath id="SVGID_29_">
				<use xlink:href="#SVGID_28_"  overflow="visible"/>
			</clipPath>
			<path clip-path="url(#SVGID_29_)" fill="#4FAE34" d="M136.9,51.9v0.5c0.4-0.5,1-1,1.8-1c0.1,0,0.3,0,0.5,0c0.1,0,0.1,0.2,0.1,0.3
				l-0.1,0.7c0,0.1-0.1,0.2-0.2,0.2c-0.1,0-0.2,0-0.5,0c-0.6,0-1.2,0.4-1.6,1V59c0,0.2-0.1,0.3-0.3,0.3h-0.8c-0.2,0-0.3-0.1-0.3-0.3
				v-7.1c0-0.2,0.1-0.3,0.3-0.3h0.7C136.8,51.6,136.9,51.7,136.9,51.9"/>
		</g>
	</g>
	<g>
		<g>
			<defs>
				<rect id="SVGID_30_" x="0" y="0" width="205.2" height="62.9"/>
			</defs>
			<clipPath id="SVGID_31_">
				<use xlink:href="#SVGID_30_"  overflow="visible"/>
			</clipPath>
			<path clip-path="url(#SVGID_31_)" fill="#4FAE34" d="M147,59.1c0,0.2-0.1,0.2-0.2,0.2H146c-0.7,0-1-0.5-1-1.2l0,0
				c-0.4,0.7-1.4,1.3-2.4,1.3c-2.2,0-3.2-1.9-3.2-3.9c0-2.7,1.6-4.2,3.4-4.2c0.8,0,1.7,0.3,2.1,1v-0.5c0-0.2,0.1-0.3,0.3-0.3h0.7
				c0.2,0,0.3,0.1,0.3,0.3v5.6c0,0.4,0,0.6,0.1,0.7c0.1,0.1,0.1,0.1,0.3,0.1h0.1c0.1,0,0.2,0,0.2,0.2L147,59.1L147,59.1z
				 M144.9,53.7c-0.4-0.7-1.2-1.2-1.9-1.2c-1.2,0-2.2,1.1-2.2,3c0,1.8,0.8,2.8,2,2.8c1,0,1.8-0.8,2.1-1.6L144.9,53.7L144.9,53.7z"/>
		</g>
	</g>
	<g>
		<g>
			<defs>
				<rect id="SVGID_32_" x="0" y="0" width="205.2" height="62.9"/>
			</defs>
			<clipPath id="SVGID_33_">
				<use xlink:href="#SVGID_32_"  overflow="visible"/>
			</clipPath>
			<path clip-path="url(#SVGID_33_)" fill="#4FAE34" d="M149.5,59c0,0.2-0.1,0.3-0.3,0.3h-0.8c-0.2,0-0.3-0.1-0.3-0.3V48.4
				c0-0.2,0-0.3,0.2-0.3c0.8-0.1,0.8-0.1,0.9-0.1c0.1,0,0.2,0.1,0.2,0.3V59H149.5z"/>
		</g>
	</g>
	<g>
		<g>
			<defs>
				<rect id="SVGID_34_" x="0" y="0" width="205.2" height="62.9"/>
			</defs>
			<clipPath id="SVGID_35_">
				<use xlink:href="#SVGID_34_"  overflow="visible"/>
			</clipPath>
			<path clip-path="url(#SVGID_35_)" fill="#4FAE34" d="M152.7,59c0,0.2-0.1,0.3-0.3,0.3h-0.8c-0.2,0-0.3-0.1-0.3-0.3V48.4
				c0-0.2,0-0.3,0.2-0.3c0.8-0.1,0.8-0.1,0.9-0.1c0.1,0,0.2,0.1,0.2,0.3V59H152.7z"/>
		</g>
	</g>
	<g>
		<g>
			<defs>
				<rect id="SVGID_36_" x="0" y="0" width="205.2" height="62.9"/>
			</defs>
			<clipPath id="SVGID_37_">
				<use xlink:href="#SVGID_36_"  overflow="visible"/>
			</clipPath>
			<path clip-path="url(#SVGID_37_)" fill="#4FAE34" d="M155.5,51.8l2.1,6l2-6c0.1-0.2,0.1-0.2,0.3-0.2h0.9c0.1,0,0.2,0.1,0.2,0.2
				v0.1l-3.1,8.4c-0.7,1.9-1.5,2.6-3.2,2.6c-0.2,0-0.5,0-0.7-0.1c-0.1,0-0.2-0.1-0.2-0.2v-0.1l0.1-0.6c0-0.2,0.1-0.2,0.2-0.2h0.1
				c0.2,0,0.4,0,0.6,0c0.9,0,1.4-0.4,1.7-1.2l0.4-1l-2.9-7.6c0-0.1,0-0.3,0.2-0.3h1.1C155.4,51.6,155.5,51.7,155.5,51.8"/>
		</g>
	</g>
	<g>
		<g>
			<defs>
				<rect id="SVGID_38_" x="0" y="0" width="205.2" height="62.9"/>
			</defs>
			<clipPath id="SVGID_39_">
				<use xlink:href="#SVGID_38_"  overflow="visible"/>
			</clipPath>
			<path clip-path="url(#SVGID_39_)" fill="#4FAE34" d="M172.5,59.1c0,0.2-0.1,0.2-0.2,0.2h-0.7c-0.7,0-1-0.5-1-1.2l0,0
				c-0.4,0.7-1.4,1.3-2.4,1.3c-2.2,0-3.2-1.9-3.2-3.9c0-2.7,1.6-4.2,3.4-4.2c0.8,0,1.7,0.3,2.1,1v-0.5c0-0.2,0.1-0.3,0.3-0.3h0.7
				c0.2,0,0.3,0.1,0.3,0.3v5.6c0,0.4,0,0.6,0.1,0.7c0.1,0.1,0.1,0.1,0.3,0.1h0.1c0.1,0,0.2,0,0.2,0.2L172.5,59.1L172.5,59.1z
				 M170.4,53.7c-0.4-0.7-1.2-1.2-1.9-1.2c-1.2,0-2.2,1.1-2.2,3c0,1.8,0.8,2.8,2,2.8c1,0,1.8-0.8,2.1-1.6L170.4,53.7L170.4,53.7z"/>
		</g>
	</g>
	<g>
		<g>
			<defs>
				<rect id="SVGID_40_" x="0" y="0" width="205.2" height="62.9"/>
			</defs>
			<clipPath id="SVGID_41_">
				<use xlink:href="#SVGID_40_"  overflow="visible"/>
			</clipPath>
			<path clip-path="url(#SVGID_41_)" fill="#4FAE34" d="M180.2,59.1c0,0.2-0.1,0.3-0.3,0.3h-0.8c-0.2,0-0.3-0.1-0.3-0.3v-4.5
				c0-1.1-0.3-2-1.6-2c-0.7,0-1.7,0.4-2.2,0.9V59c0,0.2-0.1,0.3-0.3,0.3H174c-0.2,0-0.3-0.1-0.3-0.3V48.4c0-0.2,0.1-0.3,0.3-0.3
				c0.6-0.1,0.8-0.1,0.8-0.1c0.1,0,0.2,0.1,0.2,0.3v4.1c0.7-0.6,1.7-0.9,2.6-0.9c1.8,0,2.5,1.1,2.5,2.9L180.2,59.1L180.2,59.1z"/>
		</g>
	</g>
	<g>
		<g>
			<defs>
				<rect id="SVGID_42_" x="0" y="0" width="205.2" height="62.9"/>
			</defs>
			<clipPath id="SVGID_43_">
				<use xlink:href="#SVGID_42_"  overflow="visible"/>
			</clipPath>
			<path clip-path="url(#SVGID_43_)" fill="#4FAE34" d="M188.4,55.2c0,0.4-0.1,0.4-0.5,0.4H183c0,1.5,0.9,2.7,2.5,2.7
				c0.7,0,1.4-0.1,1.9-0.3c0.1,0,0.3-0.1,0.4,0.1l0.2,0.6c0,0.1,0,0.2-0.2,0.3c-0.7,0.3-1.7,0.5-2.4,0.5c-2.5,0-3.8-1.6-3.8-4
				c0-2.3,1.4-4,3.7-4c0.9,0,1.6,0.3,2.2,0.9c0.6,0.7,0.9,1.6,0.9,2.6L188.4,55.2L188.4,55.2z M187.1,54.8v-0.2c0-1.1-0.6-2-1.8-2
				c-1.3,0-2.1,1.1-2.2,2.3C183,54.8,187.1,54.8,187.1,54.8z"/>
		</g>
	</g>
	<g>
		<g>
			<defs>
				<rect id="SVGID_44_" x="0" y="0" width="205.2" height="62.9"/>
			</defs>
			<clipPath id="SVGID_45_">
				<use xlink:href="#SVGID_44_"  overflow="visible"/>
			</clipPath>
			<path clip-path="url(#SVGID_45_)" fill="#4FAE34" d="M196.8,59.1c0,0.2-0.1,0.2-0.2,0.2h-0.7c-0.7,0-1-0.5-1-1.2l0,0
				c-0.4,0.7-1.4,1.3-2.4,1.3c-2.2,0-3.2-1.9-3.2-3.9c0-2.7,1.6-4.2,3.4-4.2c0.8,0,1.7,0.3,2.1,1v-0.5c0-0.2,0.1-0.3,0.3-0.3h0.7
				c0.2,0,0.3,0.1,0.3,0.3v5.6c0,0.4,0,0.6,0.1,0.7c0.1,0.1,0.1,0.1,0.3,0.1h0.1c0.1,0,0.2,0,0.2,0.2L196.8,59.1L196.8,59.1z
				 M194.7,53.7c-0.4-0.7-1.2-1.2-1.9-1.2c-1.2,0-2.2,1.1-2.2,3c0,1.8,0.8,2.8,2,2.8c1,0,1.8-0.8,2.1-1.6L194.7,53.7L194.7,53.7z"/>
		</g>
	</g>
	<g>
		<g>
			<defs>
				<rect id="SVGID_46_" x="0" y="0" width="205.2" height="62.9"/>
			</defs>
			<clipPath id="SVGID_47_">
				<use xlink:href="#SVGID_46_"  overflow="visible"/>
			</clipPath>
			<path clip-path="url(#SVGID_47_)" fill="#4FAE34" d="M204.5,59c0,0.2-0.1,0.3-0.2,0.3h-0.7c-0.2,0-0.3-0.1-0.3-0.3v-0.6
				c-0.5,0.6-1.4,1-2.4,1c-2.3,0-3.3-1.9-3.3-4c0-2.4,1.4-4.1,3.5-4.1c0.7,0,1.6,0.3,2.1,0.9v-3.9c0-0.2,0-0.3,0.3-0.3
				c0.8-0.1,0.8-0.1,0.9-0.1c0.2,0,0.2,0.1,0.2,0.3L204.5,59L204.5,59z M203.1,53.6c-0.3-0.6-1.1-1.1-1.9-1.1
				c-1.4,0-2.3,1.2-2.3,2.9s0.8,3,2.1,3c0.8,0,1.6-0.5,2-1.1L203.1,53.6L203.1,53.6z"/>
		</g>
	</g>
</g>
</svg>
